<svg id="Layer_1" data-name="Layer 1" xmlns="http://www.w3.org/2000/svg" viewBox="0 0 98 98">
  <circle cx="49" cy="49" r="49" fill="#ee7723"/>
  <path d="M63.89,26.61v6a26.15,26.15,0,0,0-7.22-4.42,21.32,21.32,0,0,0-3.23-1l3.49,4.68-3.74,3.48c.42.17.85.26,1.19.43a15.4,15.4,0,0,1,4.93,3.4A17.56,17.56,0,0,1,62.7,44a14.5,14.5,0,0,1,1.28,6,15.16,15.16,0,0,1-1.28,6.12,15.9,15.9,0,0,1-8.32,8.33,15.08,15.08,0,0,1-12.16,0,15.4,15.4,0,0,1-4.93-3.4,17.6,17.6,0,0,1-3.4-4.93,15.16,15.16,0,0,1,0-12.15,16,16,0,0,1,8.33-8.33,14.36,14.36,0,0,1,5-1.19l4.08-3.83-3.15-4.25a23.21,23.21,0,0,0-8.92,1.79A24.51,24.51,0,0,0,26.5,41a24,24,0,0,0,0,18.19,23.73,23.73,0,0,0,30.26,13A24.41,24.41,0,0,0,64,67.75v6h8V26.61Z" transform="translate(-1 -1)" fill="#fff"/>
</svg>
